REM DIRINDEX 1\2,1\3,1\4,1\5
REM DIRNAME "folder01","folder02","folder03","folder04","folder05"
TITLE ""
FILE "1Q_t_0949-0958.mp3" MP3
  TRACK 01 AUDIO
    TITLE "3:cjc172_3802"
    INDEX 01 00:00:00
  TRACK 02 AUDIO
    TITLE "0:"
    INDEX 01 00:01:18
  TRACK 03 AUDIO
    TITLE "4:cjc172_3803"
    INDEX 01 00:01:27
  TRACK 04 AUDIO
    TITLE "0:"
    INDEX 01 00:03:44
  TRACK 05 AUDIO
    TITLE "5:cjc172_3804"
    INDEX 01 00:03:52
  TRACK 06 AUDIO
    TITLE "0:"
    INDEX 01 00:08:04
  TRACK 07 AUDIO
    TITLE "3:cjc172_3805"
    INDEX 01 00:08:51
  TRACK 08 AUDIO
    TITLE "0:"
    INDEX 01 00:09:62
  TRACK 09 AUDIO
    TITLE "4:cjc172_3806"
    INDEX 01 00:09:68
  TRACK 10 AUDIO
    TITLE "0:"
    INDEX 01 00:11:32
  TRACK 11 AUDIO
    TITLE "5:cjc172_3807"
    INDEX 01 00:11:39
  TRACK 12 AUDIO
    TITLE "0:"
    INDEX 01 00:15:12
  TRACK 13 AUDIO
    TITLE "3:cjc172_3808"
    INDEX 01 00:15:59
  TRACK 14 AUDIO
    TITLE "0:"
    INDEX 01 00:16:60
  TRACK 15 AUDIO
    TITLE "4:cjc172_3809"
    INDEX 01 00:16:68
  TRACK 16 AUDIO
    TITLE "0:"
    INDEX 01 00:19:12
  TRACK 17 AUDIO
    TITLE "5:cjc172_3810"
    INDEX 01 00:19:19
  TRACK 18 AUDIO
    TITLE "0:"
    INDEX 01 00:23:52
  TRACK 19 AUDIO
    TITLE "3:cjc172_3811"
    INDEX 01 00:24:25
  TRACK 20 AUDIO
    TITLE "0:"
    INDEX 01 00:25:20
  TRACK 21 AUDIO
    TITLE "4:cjc172_3812"
    INDEX 01 00:25:30
  TRACK 22 AUDIO
    TITLE "0:"
    INDEX 01 00:26:35
  TRACK 23 AUDIO
    TITLE "5:cjc172_3813"
    INDEX 01 00:26:43
  TRACK 24 AUDIO
    TITLE "0:"
    INDEX 01 00:32:32
  TRACK 25 AUDIO
    TITLE "3:cjc172_3814"
    INDEX 01 00:33:02
  TRACK 26 AUDIO
    TITLE "0:"
    INDEX 01 00:34:17
  TRACK 27 AUDIO
    TITLE "4:cjc172_3815"
    INDEX 01 00:34:23
  TRACK 28 AUDIO
    TITLE "0:"
    INDEX 01 00:36:28
  TRACK 29 AUDIO
    TITLE "5:cjc172_3816"
    INDEX 01 00:36:34
  TRACK 30 AUDIO
    TITLE "0:"
    INDEX 01 00:42:28
  TRACK 31 AUDIO
    TITLE "3:cjc172_3817"
    INDEX 01 00:42:73
  TRACK 32 AUDIO
    TITLE "0:"
    INDEX 01 00:44:15
  TRACK 33 AUDIO
    TITLE "4:cjc172_3818"
    INDEX 01 00:44:23
  TRACK 34 AUDIO
    TITLE "0:"
    INDEX 01 00:45:50
  TRACK 35 AUDIO
    TITLE "5:cjc172_3819"
    INDEX 01 00:45:58
  TRACK 36 AUDIO
    TITLE "0:"
    INDEX 01 00:50:28
  TRACK 37 AUDIO
    TITLE "3:cjc172_3820"
    INDEX 01 00:50:75
  TRACK 38 AUDIO
    TITLE "0:"
    INDEX 01 00:52:15
  TRACK 39 AUDIO
    TITLE "4:cjc172_3821"
    INDEX 01 00:52:23
  TRACK 40 AUDIO
    TITLE "0:"
    INDEX 01 00:53:26
  TRACK 41 AUDIO
    TITLE "5:cjc172_3822"
    INDEX 01 00:53:34
  TRACK 42 AUDIO
    TITLE "0:"
    INDEX 01 00:57:71
  TRACK 43 AUDIO
    TITLE "3:cjc172_3823"
    INDEX 01 00:58:43
  TRACK 44 AUDIO
    TITLE "0:"
    INDEX 01 00:59:48
  TRACK 45 AUDIO
    TITLE "4:cjc172_3824"
    INDEX 01 00:59:54
  TRACK 46 AUDIO
    TITLE "0:"
    INDEX 01 01:00:60
  TRACK 47 AUDIO
    TITLE "5:cjc172_3825"
    INDEX 01 01:00:65
  TRACK 48 AUDIO
    TITLE "0:"
    INDEX 01 01:04:63
  TRACK 49 AUDIO
    TITLE "3:cjc172_3826"
    INDEX 01 01:05:35
  TRACK 50 AUDIO
    TITLE "0:"
    INDEX 01 01:06:39
  TRACK 51 AUDIO
    TITLE "4:cjc172_3827"
    INDEX 01 01:06:46
  TRACK 52 AUDIO
    TITLE "0:"
    INDEX 01 01:10:64
  TRACK 53 AUDIO
    TITLE "5:cjc172_3828"
    INDEX 01 01:10:72
  TRACK 54 AUDIO
    TITLE "0:"
    INDEX 01 01:16:15
  TRACK 55 AUDIO
    TITLE "3:cjc172_3829"
    INDEX 01 01:16:60
  TRACK 56 AUDIO
    TITLE "0:"
    INDEX 01 01:18:16
  TRACK 57 AUDIO
    TITLE "4:cjc172_3830"
    INDEX 01 01:18:26
  TRACK 58 AUDIO
    TITLE "0:"
    INDEX 01 01:19:39
  TRACK 59 AUDIO
    TITLE "5:cjc172_3831"
    INDEX 01 01:19:47
  TRACK 60 AUDIO
    TITLE "0:"
    INDEX 01 01:24:40
